<?xml version="1.0" standalone="no"?>
<!DOCTYPE svg PUBLIC "-//W3C//DTD SVG 20010904//EN"
 "http://www.w3.org/TR/2001/REC-SVG-20010904/DTD/svg10.dtd">
<svg version="1.0" xmlns="http://www.w3.org/2000/svg"
 width="541.000000pt" height="541.000000pt" viewBox="0 0 541.000000 541.000000"
 preserveAspectRatio="xMidYMid meet">
<metadata>
Created by potrace 1.14, written by Peter Selinger 2001-2017
</metadata>
<g transform="translate(0.000000,541.000000) scale(0.100000,-0.100000)"
fill="#000000" stroke="none">
<path d="M1915 4400 l-790 -790 120 -112 c66 -62 149 -140 184 -174 l63 -60 5
-440 5 -439 -186 -190 c-102 -104 -186 -194 -186 -200 0 -13 1562 -1575 1575
-1575 13 0 2385 2372 2385 2385 0 17 -799 810 -807 801 -4 -4 -10 -363 -13
-797 l-5 -790 -182 185 -183 186 0 445 0 445 53 53 c28 29 111 108 182 175
l130 122 -780 780 -780 780 -790 -790z m1793 -1592 l3 -713 -250 -250 -251
-250 0 551 c0 391 -3 561 -12 585 -29 86 -111 165 -198 189 -19 6 -78 17 -130
26 -158 25 -289 54 -333 73 -56 24 -112 88 -133 153 -16 47 -18 109 -22 532
l-3 479 93 94 93 93 5 -537 5 -538 24 -48 c40 -82 89 -102 286 -117 209 -17
318 -55 404 -144 l44 -45 49 25 c27 14 67 41 88 61 51 46 53 80 8 119 -55 45
-105 62 -293 93 -215 36 -268 51 -324 92 -57 41 -87 109 -101 224 -5 50 -10
277 -10 505 l0 415 478 -478 477 -477 3 -712z m-1481 155 c44 -81 85 -99 273
-114 229 -19 345 -62 435 -162 87 -95 94 -159 95 -782 l0 -491 -69 -68 -70
-69 -3 584 -3 584 -24 48 c-40 81 -89 102 -281 118 -217 17 -309 49 -405 140
l-52 49 -59 -36 c-103 -62 -128 -96 -100 -139 38 -58 123 -87 365 -125 232
-37 308 -78 354 -189 22 -56 22 -61 25 -641 l3 -585 -506 505 -505 505 0 705
0 705 248 248 247 247 5 -497 c5 -491 5 -499 27 -540z"/>
<path d="M712 3197 l-392 -392 395 -395 395 -395 0 788 c0 433 -1 787 -3 787
-1 0 -179 -177 -395 -393z"/>
</g>
</svg>
